inDegrees=no
num_controls=7
num_derivatives=13
num_iterations=107
num_multipliers=7
num_parameters=0
num_slacks=7
num_states=26
objective=5.643591
objective_accelerations=0.867505
objective_balance=0.076297
objective_effort=0.469407
objective_height=4.188624
objective_ligament=0.041759
solver_duration=1169.016595
status=Solve_Succeeded
success=true
DataType=double
version=3
OpenSimVersion=4.4-2022-07-23-0e9fedc
endheader
time	/jointset/ground_pelvis/pelvis_tilt/value	/jointset/ground_pelvis/pelvis_tx/value	/jointset/ground_pelvis/pelvis_ty/value	/jointset/hip_l/hip_flexion_l/value	/jointset/hip_l/hip_adduction_l/value	/jointset/hip_l/hip_rotation_l/value	/jointset/back/lumbar_extension/value	/jointset/patellofemoral_l/patellar_flexion_l/value	/jointset/knee_l/knee_flexion_l/value	/jointset/knee_l/knee_adduction_l/value	/jointset/knee_l/knee_rotation_l/value	/jointset/ankle_l/ankle_angle_l/value	/jointset/subtalar_l/subtalar_angle_l/value	/jointset/ground_pelvis/pelvis_tilt/speed	/jointset/ground_pelvis/pelvis_tx/speed	/jointset/ground_pelvis/pelvis_ty/speed	/jointset/hip_l/hip_flexion_l/speed	/jointset/hip_l/hip_adduction_l/speed	/jointset/hip_l/hip_rotation_l/speed	/jointset/back/lumbar_extension/speed	/jointset/patellofemoral_l/patellar_flexion_l/speed	/jointset/knee_l/knee_flexion_l/speed	/jointset/knee_l/knee_adduction_l/speed	/jointset/knee_l/knee_rotation_l/speed	/jointset/ankle_l/ankle_angle_l/speed	/jointset/subtalar_l/subtalar_angle_l/speed	/forceset/tau_hip_flexion_l	/forceset/tau_hip_adduction_l	/forceset/tau_hip_rotation_l	/forceset/tau_knee_flexion_l	/forceset/tau_ankle_angle_l	/forceset/tau_subtalar_angle_l	/forceset/tau_lumbar_extension	lambda_cid13_p0	lambda_cid13_p1	lambda_cid13_p2	lambda_cid13_p3	lambda_cid13_p4	lambda_cid13_p5	lambda_cid14_p0	/jointset/ground_pelvis/pelvis_tilt/accel	/jointset/ground_pelvis/pelvis_tx/accel	/jointset/ground_pelvis/pelvis_ty/accel	/jointset/hip_l/hip_flexion_l/accel	/jointset/hip_l/hip_adduction_l/accel	/jointset/hip_l/hip_rotation_l/accel	/jointset/back/lumbar_extension/accel	/jointset/patellofemoral_l/patellar_flexion_l/accel	/jointset/knee_l/knee_flexion_l/accel	/jointset/knee_l/knee_adduction_l/accel	/jointset/knee_l/knee_rotation_l/accel	/jointset/ankle_l/ankle_angle_l/accel	/jointset/subtalar_l/subtalar_angle_l/accel	gamma_cid13_p0	gamma_cid13_p1	gamma_cid13_p2	gamma_cid13_p3	gamma_cid13_p4	gamma_cid13_p5	gamma_cid14_p0
1.5	-0.3461331432584157	-0.03763667205123304	0.7052595963491552	1.377699597577195	-0.2515230302206948	-0.02509164621168721	-0.3692705657921724	1.087116055761697	1.087116055761725	0.00760158654485915	0.1745323517723942	0.2647207571049767	0.06879745289060463	0.3653545426972021	0.1007740517847891	0.7662381376034579	-2.552359210830448	-0.06717500607283078	-0.4220669062386501	0.5331249594476816	-2.78994788453743	-2.789947884537492	-0.4552008442136658	-0.0001848246757519035	-0.7517368569657393	-0.2859930195047904	-0.2131726204240458	0.006511628017320263	-0.008927564407527401	-0.3018727880228863	0.09589056756694976	0.02283850946148925	0.2115735249835238	-6.563434168688358	-7.386042578580785	-0.8051856107650233	-9.0514015276128	-603.1074391550032	-58.03219502816194	-4.32244527238263	1.223548831010007	0.9645022386112441	-0.6125223876007763	-2.05991255475708	-0.1319028155361536	-0.9557968847801729	2.230633228376689	-1.901313451071738	-1.901313451071734	-0.3814322575943762	-0.1215778453217006	-1.285245685640003	-0.1404559877840355	9.244404707204254e-08	5.02257677745858e-06	1.2843599193322e-06	6.393862306336766e-07	4.073030389663183e-07	3.037316661029367e-06	3.001424551655263e-07
1.51	-0.3424190141157111	-0.03658082188159181	0.7128896173223803	1.352075837642477	-0.2522023574408	-0.02936408785074155	-0.3638287367072054	1.059124665469189	1.05912466546919	0.003031696666034279	0.1745283962633359	0.2571398313436083	0.06592950996680987	0.3773923926536381	0.1103829514009243	0.7595850301521347	-2.57205230710356	-0.06863796905205505	-0.4323543390141261	0.5551786563417597	-2.807935706549238	-2.807935706549267	-0.458777083982413	-0.0006917825000320004	-0.7643055234877757	-0.2874812620834235	-0.2063120077244343	0.005488283295609565	-0.008622413888555973	-0.2967238424562934	0.09773694843697604	0.02275918885203364	0.2056133480839736	-5.566037125982781	-7.783696538307303	-0.4476991251194678	-9.350610658385003	-596.1606297593606	-58.13474323197804	-5.708486708067832	1.182092615566917	0.9572740224958847	-0.7187794179251606	-1.872913438274953	-0.146211344172404	-1.054734203105766	2.183407739500522	-1.688408433880461	-1.688408433875479	-0.3448871401077823	-0.02849619338653761	-1.221042792224919	-0.1369622495121904	7.912525926216078e-08	5.381381861954075e-06	1.644058899480295e-06	6.952671569464951e-07	4.009632013794051e-07	3.178140736825766e-06	3.065502913982308e-07
1.52	-0.3385868685659166	-0.03542924467591288	0.7204476923222871	1.326265365690094	-0.2528948579517089	-0.03373730736334879	-0.3581682366893828	1.030965218585017	1.030965218585019	-0.001573789071206416	0.1745167228871979	0.2494375457856736	0.06304989384590703	0.3889578241143185	0.1199194589923291	0.7518489429397588	-2.589701614364145	-0.06980966423360188	-0.4422224809565773	0.5768591460189167	-2.823559202866849	-2.823559202866845	-0.46232001589486	-0.001728398020526635	-0.7760088162793901	-0.2883276589264242	-0.1994513950248115	0.004464938574063607	-0.008317263369516509	-0.2915748968896872	0.09958332930704561	0.02267986824278922	0.1996531711844176	-4.558224058285039	-8.200081169701077	-0.06791786989568092	-9.753961203854256	-589.0702452079083	-58.29623149027901	-7.290737901991949	1.129065131859103	0.9500238336651289	-0.8291183398113697	-1.651154752251717	-0.07364925600078029	-0.8719387181755098	2.155991784992538	-1.428448312232298	-1.428448312232298	-0.3747706863344382	-0.2275093845641225	-1.112170939555686	-0.01208684065786122	-3.344783041199288e-08	5.519377657029311e-06	2.679783012548804e-06	8.143686667340377e-07	2.901991588285171e-07	3.2529522092705e-06	2.321650205668759e-07
1.53	-0.3346415737347339	-0.03418278802372736	0.7279230412955349	1.300288983122464	-0.2535966207529993	-0.03820966266855473	-0.3522927805485858	1.002661652930175	1.00266165293016	-0.00621088905107964	0.1744924006922322	0.2416229810377464	0.06016634660832911	0.4000155890161363	0.1293444716964141	0.7430512415967457	-2.605224071705438	-0.07049375716652564	-0.452188509840197	0.5981544729685239	-2.836755381833207	-2.836755381833211	-0.4650991550000727	-0.003190494637525441	-0.78675966549295	-0.288285051527528	-0.1927219957586093	0.004194134384808411	-0.008230268394725942	-0.2864820292071193	0.1009498629797109	0.02198903995021113	0.1937321142366513	-3.770441981268795	-8.274645069777806	0.2142905373156742	-9.816650603168936	-582.3420432921373	-57.75797715305345	-9.064725386822523	1.081292072810097	0.9348500991348758	-0.9305475908286782	-1.45018597762095	-0.05956673325935788	-1.049958823053883	2.104661774321416	-1.205417980116298	-1.205417980117774	-0.2284938773065829	-0.1148267933434267	-1.034647367754278	0.02545856423826451	-2.514786158169344e-07	5.422763582095524e-06	4.433783829345248e-06	1.000642046463474e-06	6.848439850340699e-08	3.257625290654091e-06	7.193707347995853e-08
1.54	-0.3305882692738351	-0.0328428592224299	0.7353053229434963	1.274167897030912	-0.254303979967886	-0.04277988303249476	-0.3462066994134175	0.9742380824274054	0.9742380824273854	-0.01087558209294524	0.1744516041324944	0.2337052867065851	0.05728583025155518	0.4105597500566163	0.1386138888147176	0.733235477882455	-2.618642319148851	-0.07092894695231912	-0.461795492707762	0.6189841448931875	-2.847560172450719	-2.847560172450734	-0.4678386282929522	-0.005023270977553512	-0.7966347329264358	-0.2877214827656333	-0.1859925964924025	0.003923330195637067	-0.008143273419936516	-0.2813891615245426	0.102316396652401	0.02129821165774537	0.1878110572888765	-2.982252130036873	-8.354955553623093	0.5038912129139143	-9.923124958940724	-575.6161186334671	-57.22553071114254	-10.90980137609068	1.026344359591707	0.9189047165087793	-1.032730814066952	-1.230312772675761	-0.02386862657472213	-0.8001295149645722	2.06286078000392	-0.9501706424634436	-0.9501706424634438	-0.3668375238678165	-0.3016453291699073	-0.9370145835410315	0.09210543194177619	-3.874336530163359e-07	5.227810545725522e-06	5.470096444743878e-06	1.097347821163936e-06	-8.694934520696007e-08	3.0764319970486e-06	-2.900930908457769e-08
